<svg xmlns="http://www.w3.org/2000/svg" width="211" height="176" viewBox="0 0 211 176" version="1.1">
	<path d="M 49.367 21.918 C 46.164 23.871, 42.997 27.631, 43.004 29.473 C 43.006 30.038, 43.886 29.059, 44.960 27.299 C 47.752 22.719, 52.247 20.673, 58.250 21.250 C 61.133 21.527, 62.617 21.372, 61.835 20.877 C 59.470 19.378, 52.590 19.952, 49.367 21.918 M 136.367 21.918 C 133.164 23.871, 129.997 27.631, 130.004 29.473 C 130.006 30.038, 130.886 29.059, 131.960 27.299 C 134.752 22.719, 139.247 20.673, 145.250 21.250 C 148.133 21.527, 149.617 21.372, 148.835 20.877 C 146.470 19.378, 139.590 19.952, 136.367 21.918 M 66 24.500 C 67.292 25.875, 68.574 27, 68.849 27 C 69.124 27, 68.292 25.875, 67 24.500 C 65.708 23.125, 64.426 22, 64.151 22 C 63.876 22, 64.708 23.125, 66 24.500 M 153 24.500 C 154.292 25.875, 155.574 27, 155.849 27 C 156.124 27, 155.292 25.875, 154 24.500 C 152.708 23.125, 151.426 22, 151.151 22 C 150.876 22, 151.708 23.125, 153 24.500 M 48.400 26.400 C 45.498 29.302, 45 30.488, 45 34.500 C 45 38.547, 45.491 39.691, 48.533 42.733 C 50.477 44.677, 51.865 46.468, 51.619 46.714 C 50.679 47.654, 46.811 44.738, 44.950 41.686 C 43.882 39.934, 43.006 39.132, 43.004 39.905 C 43.002 40.677, 44.787 43.009, 46.971 45.087 L 50.941 48.864 37.580 87.682 C 15.609 151.513, 18.194 145, 14.825 145 C 11.148 145, 6.593 147.315, 4.561 150.217 C 3.687 151.464, 3 154.502, 3 157.117 C 3 160.864, 3.560 162.387, 5.829 164.817 C 11.420 170.802, 21.308 169.616, 24.675 162.555 C 26.341 159.062, 28 157.870, 28 160.167 C 28 162.275, 29.267 160.117, 29.385 157.808 C 29.496 155.623, 30.241 155.459, 52.873 152.612 C 72.682 150.121, 76.570 149.874, 78.373 150.997 C 80.226 152.151, 80.342 152.131, 79.277 150.841 C 78.214 149.554, 80.898 148.994, 99.777 146.565 C 129.714 142.712, 131.740 142.607, 132.457 144.863 C 134.453 151.153, 145.031 154.145, 150.371 149.930 C 158.095 143.834, 156.832 132.629, 148.043 129.272 C 143.901 127.691, 143.760 127.521, 146.043 126.885 C 148.409 126.225, 148.417 126.196, 146.250 126.100 C 144.093 126.004, 144 125.633, 144 117.103 L 144 108.207 153.750 104.461 C 159.113 102.401, 167.872 99.034, 173.215 96.980 L 182.930 93.245 184.385 95.464 C 185.783 97.599, 185.230 98.292, 169.918 113.582 C 155.080 128.398, 153.855 129.390, 151.901 128.170 C 148.671 126.153, 149.118 127.147, 153.241 131.147 C 157.229 135.016, 157.763 135.194, 155.760 131.988 C 154.632 130.181, 155.951 128.570, 170.434 114.066 C 185.445 99.033, 186.463 98.211, 188.396 99.565 C 189.523 100.354, 190.907 100.982, 191.473 100.960 C 192.038 100.938, 191.150 100.189, 189.500 99.295 C 187.850 98.401, 187.038 97.490, 187.695 97.270 C 188.352 97.050, 189.784 97.349, 190.879 97.935 C 191.973 98.521, 194.743 99, 197.034 99 C 206.437 99, 211.576 87.403, 205.417 80.084 C 201.502 75.431, 196.768 74.651, 189.750 77.503 C 188.786 77.895, 188 77.771, 188 77.228 C 188 75.392, 193.954 73.735, 198.651 74.264 C 201.490 74.584, 202.736 74.447, 201.885 73.908 C 199.548 72.428, 192.332 72.903, 189.094 74.750 L 186.026 76.500 170.357 60.840 L 154.687 45.179 156.344 41.688 C 158.126 37.933, 158.517 31.365, 157.092 29.115 C 156.553 28.264, 156.416 29.510, 156.736 32.349 C 157.252 36.924, 155.622 43, 153.879 43 C 153.395 43, 153 42.550, 153 42 C 153 41.450, 153.352 41, 153.782 41 C 154.212 41, 154.655 39.895, 154.767 38.545 C 154.879 37.194, 155.030 35.732, 155.104 35.295 C 155.634 32.135, 154.528 29.328, 151.600 26.400 C 146.701 21.501, 140.299 21.501, 135.400 26.400 C 133.530 28.270, 132 30.745, 132 31.900 C 132 34.441, 130.328 34.694, 129.689 32.250 C 129.254 30.583, 129.226 30.583, 129.116 32.250 C 129.008 33.874, 126.908 34, 100 34 L 71 34 70.900 31.750 C 70.805 29.605, 70.766 29.616, 70.064 32 C 69.336 34.471, 69.309 34.458, 67.785 30.918 C 65.531 25.683, 61.627 23, 56.265 23 C 52.520 23, 51.251 23.549, 48.400 26.400 M 42.252 34.500 C 42.263 36.700, 42.468 37.482, 42.707 36.238 C 42.946 34.994, 42.937 33.194, 42.687 32.238 C 42.437 31.282, 42.241 32.300, 42.252 34.500 M 68 36.441 C 68 37.234, 68.450 38.160, 69 38.500 C 69.550 38.840, 70 38.191, 70 37.059 C 70 35.927, 69.550 35, 69 35 C 68.450 35, 68 35.648, 68 36.441 M 71.180 37.198 C 71.454 39.084, 74.967 40.712, 95.830 48.623 L 120.161 57.849 126.471 51.188 C 132.267 45.070, 132.668 44.365, 131.391 42.541 C 130.626 41.449, 130.018 40.093, 130.040 39.527 C 130.062 38.962, 130.758 39.751, 131.588 41.280 C 132.417 42.808, 133.528 43.791, 134.058 43.464 C 134.631 43.110, 134.409 41.994, 133.511 40.712 C 132.680 39.526, 132 37.755, 132 36.777 C 132 34.486, 130.286 34.466, 129.689 36.750 C 129.254 38.417, 129.226 38.417, 129.116 36.750 C 129.008 35.126, 126.905 35, 99.930 35 L 70.861 35 71.180 37.198 M 66.200 41.200 C 64.754 42.646, 64.640 44, 65.965 44 C 66.495 44, 67.411 43.100, 68 42 C 69.179 39.797, 68.088 39.312, 66.200 41.200 M 68.477 42.675 C 67.596 44.021, 67.015 45.494, 67.187 45.949 C 67.359 46.404, 73.207 53.689, 80.181 62.138 C 87.156 70.587, 93.777 78.625, 94.894 80 L 96.925 82.500 99.424 79.500 C 102.451 75.866, 102.242 74.696, 98.418 73.868 C 95.930 73.330, 95.846 73.219, 97.849 73.118 C 99.141 73.053, 101.507 71.598, 103.107 69.885 C 105.250 67.591, 106.658 66.893, 108.448 67.235 C 110.320 67.593, 111.848 66.711, 115.098 63.400 L 119.317 59.101 116.908 58.061 C 115.584 57.488, 104.506 53.242, 92.290 48.624 L 70.081 40.228 68.477 42.675 M 62.683 44.650 C 61.389 45.944, 62.003 46.936, 63.750 46.374 C 65.167 45.918, 65.226 46.006, 64.058 46.833 C 62.846 47.692, 63.470 50.019, 67.971 61.428 C 72.863 73.826, 73.550 75.012, 75.913 75.136 C 78.267 75.260, 78.298 75.311, 76.250 75.706 C 73.512 76.233, 73.517 76.006, 76.123 82.065 C 78.059 86.565, 78.540 87, 81.576 87 C 83.407 87, 86.074 87.532, 87.501 88.183 C 89.825 89.241, 90.402 89.059, 93.016 86.433 L 95.936 83.500 92.718 79.287 C 90.542 76.439, 88.691 75.040, 87 74.967 C 85.080 74.884, 84.892 74.702, 86.192 74.180 C 87.571 73.626, 85.753 70.909, 76.365 59.500 C 62.685 42.873, 63.536 43.797, 62.683 44.650 M 135 44.740 C 135 45.265, 136.012 46.227, 137.250 46.878 C 139.311 47.963, 137.760 47.719, 134.735 46.483 C 133.527 45.990, 121.139 57.552, 122.057 58.316 C 122.729 58.876, 141.498 66, 142.300 66 C 142.685 66, 143 62.208, 143 57.573 C 143 50.389, 142.742 49.079, 141.250 48.689 C 139.583 48.254, 139.583 48.226, 141.250 48.116 C 143.755 47.950, 143.412 46.322, 140.750 45.745 C 139.512 45.477, 137.713 44.926, 136.750 44.522 C 135.787 44.117, 135 44.215, 135 44.740 M 147.250 45.347 C 143.644 46.530, 143.094 47.617, 145.750 48.311 C 147.417 48.746, 147.417 48.774, 145.750 48.884 C 144.223 48.985, 144 50.135, 144 57.913 L 144 66.825 151.250 69.561 C 155.238 71.066, 163.607 74.255, 169.849 76.648 C 176.091 79.042, 181.666 81, 182.239 81 C 182.811 81, 183.916 80.213, 184.695 79.250 C 185.972 77.671, 186.004 77.719, 185.020 79.750 C 184.255 81.329, 184.248 82, 184.996 82 C 185.583 82, 186.338 81.282, 186.675 80.404 C 187.111 79.268, 182.285 73.800, 169.904 61.404 C 160.344 51.832, 152.067 44.063, 151.511 44.141 C 150.955 44.218, 149.037 44.761, 147.250 45.347 M 150 46.500 C 148.625 47.286, 147.976 47.945, 148.559 47.965 C 149.141 47.984, 150.491 47.339, 151.559 46.532 C 154.028 44.664, 153.239 44.648, 150 46.500 M 53 46.940 C 53 47.456, 54.688 48.056, 56.750 48.272 L 60.500 48.664 56.389 48.832 L 52.278 49 36.002 96.250 C 27.051 122.237, 19.676 144.113, 19.613 144.862 C 19.551 145.610, 20.598 146.640, 21.939 147.149 C 24.356 148.067, 24.361 148.057, 22.495 145.995 C 20.805 144.127, 20.791 143.983, 22.357 144.583 C 23.482 145.015, 25.061 144.408, 26.801 142.877 L 29.500 140.500 27.250 143.064 C 22.858 148.071, 25.099 147.064, 32 140.930 C 35.850 137.508, 39 134.324, 39 133.854 C 39 132.305, 36.671 132.963, 34.064 135.250 L 31.500 137.500 33.617 135 C 35.229 133.097, 35.619 131.594, 35.253 128.705 C 34.428 122.208, 39.554 118.898, 44.777 122.557 C 46 123.413, 47 124.763, 47 125.557 C 47 126.351, 47.287 127, 47.637 127 C 48.151 127, 66.179 111.670, 70.655 107.427 C 71.505 106.622, 71.530 105.279, 70.749 102.356 C 69.389 97.260, 70.394 93.369, 73.919 90.076 L 76.723 87.457 68.611 66.729 L 60.500 46.001 56.750 46.001 C 54.688 46, 53 46.423, 53 46.940 M 180.352 46.993 C 179.171 47.470, 177.903 48.349, 177.533 48.946 C 177.164 49.544, 176.478 49.795, 176.008 49.505 C 175.006 48.886, 176.819 56.113, 177.971 57.328 C 178.402 57.783, 180.325 58.509, 182.242 58.942 C 185.382 59.650, 185.892 59.453, 187.365 56.960 C 189.687 53.029, 189.398 50.458, 186.365 48.073 C 183.446 45.776, 183.393 45.767, 180.352 46.993 M 115.880 64.344 C 112.754 67.933, 112.405 68.818, 113.319 70.831 C 114.078 72.502, 114.050 74.029, 113.220 76.227 C 112.584 77.913, 112.343 79.747, 112.686 80.301 C 113.080 80.939, 112.793 80.988, 111.905 80.435 C 111.132 79.955, 109.464 79.696, 108.197 79.859 C 106.930 80.023, 105.230 79.606, 104.418 78.932 C 103.218 77.936, 102.478 78.142, 100.471 80.028 C 99.112 81.304, 98 82.668, 98 83.059 C 98 83.450, 100.080 86.297, 102.622 89.385 C 107.159 94.895, 107.342 95, 112.456 95 C 115.322 95, 117.911 94.755, 118.210 94.457 C 118.509 94.158, 122.282 93.721, 126.594 93.485 C 130.907 93.250, 136.364 92.768, 138.721 92.415 L 143.007 91.772 142.754 79.772 L 142.500 67.773 132.500 63.892 C 127 61.758, 121.825 60.052, 121 60.100 C 120.175 60.149, 117.871 62.059, 115.880 64.344 M 144.076 80.591 L 144.039 92.182 148.770 91.596 C 151.371 91.274, 158.450 90.546, 164.500 89.979 C 179.810 88.543, 182 88.112, 182 86.538 C 182 85.784, 181.438 84.940, 180.750 84.662 C 180.003 84.361, 180.205 84.126, 181.250 84.079 C 182.360 84.029, 183 84.732, 183 86 C 183 87.100, 183.447 88, 183.994 88 C 184.540 88, 184.834 86.992, 184.645 85.759 C 184.354 83.846, 181.536 82.461, 165.402 76.299 C 155.006 72.329, 145.963 69.062, 145.307 69.040 C 144.450 69.011, 144.103 72.275, 144.076 80.591 M 50 73 C 47.359 75.641, 47.467 79.322, 50.276 82.352 C 52.420 84.666, 52.743 84.727, 55.879 83.409 C 57.709 82.639, 59.509 82.197, 59.879 82.425 C 60.249 82.654, 60.528 81.111, 60.500 78.997 C 60.407 72.025, 54.404 68.596, 50 73 M 123.813 75.683 C 124.534 75.972, 125.397 75.936, 125.729 75.604 C 126.061 75.272, 125.471 75.036, 124.417 75.079 C 123.252 75.127, 123.015 75.364, 123.813 75.683 M 206 77.500 C 207.292 78.875, 208.574 80, 208.849 80 C 209.124 80, 208.292 78.875, 207 77.500 C 205.708 76.125, 204.426 75, 204.151 75 C 203.876 75, 204.708 76.125, 206 77.500 M 63.750 76.662 C 64.438 76.940, 65.563 76.940, 66.250 76.662 C 66.938 76.385, 66.375 76.158, 65 76.158 C 63.625 76.158, 63.063 76.385, 63.750 76.662 M 129.813 76.683 C 130.534 76.972, 131.397 76.936, 131.729 76.604 C 132.061 76.272, 131.471 76.036, 130.417 76.079 C 129.252 76.127, 129.015 76.364, 129.813 76.683 M 148.813 79.683 C 149.534 79.972, 150.397 79.936, 150.729 79.604 C 151.061 79.272, 150.471 79.036, 149.417 79.079 C 148.252 79.127, 148.015 79.364, 148.813 79.683 M 209.750 85.750 C 210.327 91.753, 208.281 96.248, 203.701 99.040 C 201.941 100.114, 201.002 100.994, 201.615 100.996 C 203.460 101.002, 207.941 97.015, 209.520 93.961 C 211.134 90.839, 211.469 84.289, 210.123 82.165 C 209.628 81.383, 209.473 82.867, 209.750 85.750 M 167.813 82.683 C 168.534 82.972, 169.397 82.936, 169.729 82.604 C 170.061 82.272, 169.471 82.036, 168.417 82.079 C 167.252 82.127, 167.015 82.364, 167.813 82.683 M 173.813 83.683 C 174.534 83.972, 175.397 83.936, 175.729 83.604 C 176.061 83.272, 175.471 83.036, 174.417 83.079 C 173.252 83.127, 173.015 83.364, 173.813 83.683 M 63 84.378 C 63 84.585, 63.788 85.373, 64.750 86.128 C 66.336 87.371, 66.371 87.336, 65.128 85.750 C 63.821 84.084, 63 83.555, 63 84.378 M 80.250 84.689 C 81.213 84.941, 82.787 84.941, 83.750 84.689 C 84.713 84.438, 83.925 84.232, 82 84.232 C 80.075 84.232, 79.287 84.438, 80.250 84.689 M 86.083 85.365 C 86.313 85.565, 87.625 86.265, 89 86.920 C 91.357 88.042, 91.389 88.022, 89.559 86.555 C 87.966 85.279, 84.711 84.164, 86.083 85.365 M 94.307 86.880 C 93.365 88.389, 93.512 89.528, 95.051 92.639 C 96.909 96.393, 97.113 96.505, 101.472 96.159 C 106.481 95.760, 106.531 96.145, 100.500 88.702 C 97.110 84.519, 95.988 84.189, 94.307 86.880 M 72.942 87.570 C 72.206 88.457, 70.786 88.916, 69.676 88.625 C 68.250 88.253, 68.013 88.413, 68.809 89.209 C 69.577 89.977, 69.596 90.886, 68.872 92.239 C 68.303 93.302, 68.099 94.433, 68.419 94.752 C 68.739 95.072, 69 94.824, 69 94.201 C 69 93.579, 70.397 91.479, 72.104 89.535 C 73.811 87.591, 74.991 86, 74.726 86 C 74.461 86, 73.659 86.706, 72.942 87.570 M 182.997 89.750 C 182.996 90.162, 180.183 90.514, 176.747 90.530 C 173.311 90.547, 164.537 91.165, 157.250 91.905 L 144 93.249 144 99.625 C 144 104.081, 144.376 105.987, 145.250 105.958 C 147.897 105.869, 184.402 91.295, 184.774 90.178 C 184.990 89.530, 184.679 89, 184.083 89 C 183.488 89, 182.999 89.338, 182.997 89.750 M 91 90.346 C 91 90.537, 91.774 92.224, 92.719 94.096 C 93.955 96.543, 94.535 97.023, 94.782 95.802 C 95.189 93.797, 93.345 90, 91.965 90 C 91.434 90, 91 90.156, 91 90.346 M 184.704 92.669 C 183.988 93.828, 185.657 96.676, 186.537 95.796 C 186.893 95.441, 186.754 94.383, 186.230 93.447 C 185.706 92.510, 185.019 92.160, 184.704 92.669 M 126 95.149 C 116.925 96.066, 109.362 96.857, 109.194 96.908 C 108.356 97.160, 122.680 113.878, 123.782 113.934 C 125.270 114.011, 141.112 108.100, 142.299 107.025 C 142.739 106.627, 142.964 103.417, 142.799 99.892 L 142.500 93.481 126 95.149 M 67.158 99 C 67.158 100.375, 67.385 100.938, 67.662 100.250 C 67.940 99.563, 67.940 98.438, 67.662 97.750 C 67.385 97.063, 67.158 97.625, 67.158 99 M 97.864 97.722 C 94.762 98.051, 94.142 98.540, 93.638 101.058 C 92.973 104.387, 93.152 105.616, 94.250 105.250 C 94.662 105.112, 95 105.382, 95 105.850 C 95 107.003, 111.625 118, 113.368 118 C 114.131 118, 116.411 117.308, 118.434 116.463 L 122.112 114.926 116.927 108.713 C 114.076 105.296, 110.705 101.263, 109.436 99.750 C 107.087 96.950, 106.356 96.821, 97.864 97.722 M 95.079 102.583 C 95.127 103.748, 95.364 103.985, 95.683 103.188 C 95.972 102.466, 95.936 101.603, 95.604 101.271 C 95.272 100.939, 95.036 101.529, 95.079 102.583 M 194.762 101.707 C 196.006 101.946, 197.806 101.937, 198.762 101.687 C 199.718 101.437, 198.700 101.241, 196.500 101.252 C 194.300 101.263, 193.518 101.468, 194.762 101.707 M 89.995 107.506 C 89.317 108.323, 87.047 109.505, 84.949 110.133 C 81.668 111.116, 80.566 110.994, 77.054 109.256 C 74.808 108.146, 72.740 107.611, 72.458 108.068 C 71.897 108.976, 74.912 110.829, 78.942 112.052 C 80.982 112.671, 81.095 112.845, 79.500 112.910 C 78.400 112.956, 76.014 112.086, 74.197 110.979 L 70.894 108.965 59.197 119.201 C 52.764 124.831, 47.560 129.996, 47.632 130.679 C 47.705 131.363, 47.480 131.844, 47.132 131.748 C 45.813 131.387, 41.241 134.545, 34 140.822 C 29.875 144.398, 26.373 147.633, 26.217 148.012 C 26.061 148.390, 26.511 149.171, 27.217 149.747 C 29.136 151.312, 58.281 140.174, 57.512 138.169 C 57.081 137.049, 57.262 136.973, 58.303 137.836 C 59.336 138.694, 65.372 136.774, 84.076 129.638 C 97.509 124.514, 109.172 120.100, 109.994 119.829 C 110.946 119.516, 108.325 117.233, 102.762 113.531 C 95.005 108.369, 93.841 107.878, 92.268 109.112 C 90.682 110.357, 90.634 110.329, 91.799 108.839 C 93.436 106.745, 91.695 105.458, 89.995 107.506 M 135.500 111.519 C 132.200 112.879, 129.050 114, 128.500 114.011 C 127.950 114.022, 126.857 114.438, 126.070 114.935 C 124.504 115.927, 126.251 118.701, 133.193 126.250 C 136.945 130.329, 138.455 131.008, 137.569 128.218 C 137.125 126.817, 137.592 126.413, 139.752 126.330 C 141.263 126.271, 141.713 126.431, 140.750 126.685 C 139.787 126.939, 139 127.597, 139 128.147 C 139 128.697, 139.787 128.996, 140.750 128.812 C 142.250 128.525, 142.541 127.084, 142.786 118.738 C 142.944 113.382, 142.719 109.011, 142.286 109.024 C 141.854 109.037, 138.800 110.160, 135.500 111.519 M 86 111.563 C 83.585 112.477, 83.138 112.905, 84.559 112.944 C 85.691 112.975, 87.491 112.339, 88.559 111.532 C 90.839 109.808, 90.633 109.810, 86 111.563 M 118.750 117.733 C 116.688 118.579, 115.010 119.548, 115.023 119.886 C 115.070 121.190, 131.266 131.112, 132.546 130.621 C 133.418 130.286, 133.701 130.617, 133.342 131.551 C 133.036 132.348, 133.284 133, 133.893 133 C 136.081 133, 134.902 130.723, 128.936 123.421 C 125.600 119.340, 122.788 116.044, 122.686 116.097 C 122.584 116.151, 120.813 116.887, 118.750 117.733 M 87.301 129.781 C 65.949 137.947, 62.285 139.640, 63.301 140.870 C 64.325 142.109, 64.208 142.147, 62.500 141.125 C 60.805 140.112, 57.926 140.921, 43.620 146.428 C 34.336 150.003, 26.498 153.169, 26.203 153.464 C 25.908 153.759, 26.028 154.338, 26.470 154.750 C 26.912 155.162, 27.476 154.935, 27.722 154.244 C 27.969 153.553, 28.605 153.256, 29.136 153.584 C 30.530 154.446, 73.992 148.796, 73.396 147.831 C 73.121 147.387, 73.613 147.298, 74.490 147.635 C 75.366 147.971, 87.990 146.741, 102.542 144.901 L 129 141.556 129.136 139.028 C 129.263 136.676, 129.303 136.657, 129.706 138.750 C 130.338 142.031, 131.697 141.501, 132.268 137.750 C 132.843 133.974, 132.316 132.940, 130.880 135.029 C 130.079 136.194, 129.978 136.084, 130.392 134.500 C 130.892 132.587, 126.791 129.183, 115 121.725 C 112.599 120.206, 111.505 120.524, 87.301 129.781 M 157.158 138 C 157.158 139.375, 157.385 139.938, 157.662 139.250 C 157.940 138.563, 157.940 137.438, 157.662 136.750 C 157.385 136.063, 157.158 136.625, 157.158 138 M 157.079 142.300 C 156.938 145.519, 153.975 150.045, 150.701 152.040 C 148.941 153.114, 148.028 153.994, 148.673 153.996 C 152.213 154.008, 158.927 144.915, 157.679 141.801 C 157.351 140.982, 157.129 141.167, 157.079 142.300 M 13.269 142.693 C 14.242 142.947, 15.592 142.930, 16.269 142.656 C 16.946 142.382, 16.150 142.175, 14.500 142.195 C 12.850 142.215, 12.296 142.439, 13.269 142.693 M 4.861 146.059 L 2.500 148.119 5.250 146.444 C 6.763 145.523, 8 144.597, 8 144.385 C 8 143.604, 7.165 144.050, 4.861 146.059 M 131 147.845 C 131 148.820, 133.805 151.372, 136 152.394 C 136.825 152.778, 136.488 152.342, 135.250 151.424 C 134.012 150.507, 133 149.136, 133 148.378 C 133 147.620, 132.550 147, 132 147 C 131.450 147, 131 147.380, 131 147.845 M 1.459 150.067 C 1.096 150.653, 1.014 151.348, 1.276 151.610 C 1.538 151.872, 2.019 151.392, 2.345 150.543 C 3.021 148.781, 2.445 148.471, 1.459 150.067 M 24.606 150.416 C 24.941 151.287, 25.653 152, 26.190 152 C 27.505 152, 26.682 149.727, 25.187 149.229 C 24.456 148.985, 24.233 149.443, 24.606 150.416 M 0.272 157 C 0.272 159.475, 0.467 160.488, 0.706 159.250 C 0.944 158.012, 0.944 155.988, 0.706 154.750 C 0.467 153.512, 0.272 154.525, 0.272 157 M 142.250 154.689 C 143.213 154.941, 144.787 154.941, 145.750 154.689 C 146.713 154.438, 145.925 154.232, 144 154.232 C 142.075 154.232, 141.287 154.438, 142.250 154.689 M 26 157 C 26 157.550, 26.450 158, 27 158 C 27.550 158, 28 157.550, 28 157 C 28 156.450, 27.550 156, 27 156 C 26.450 156, 26 156.450, 26 157 M 116.872 158.750 C 115.629 160.336, 115.664 160.371, 117.250 159.128 C 118.213 158.373, 119 157.585, 119 157.378 C 119 156.555, 118.179 157.084, 116.872 158.750 M 36.813 159.683 C 37.534 159.972, 38.397 159.936, 38.729 159.604 C 39.061 159.272, 38.471 159.036, 37.417 159.079 C 36.252 159.127, 36.015 159.364, 36.813 159.683 M 44.750 160.662 C 45.438 160.940, 46.563 160.940, 47.250 160.662 C 47.938 160.385, 47.375 160.158, 46 160.158 C 44.625 160.158, 44.063 160.385, 44.750 160.662 M 53.813 161.683 C 54.534 161.972, 55.397 161.936, 55.729 161.604 C 56.061 161.272, 55.471 161.036, 54.417 161.079 C 53.252 161.127, 53.015 161.364, 53.813 161.683 M 101 162.454 C 99.625 163.215, 98.646 164.194, 98.824 164.630 C 99.002 165.066, 98.327 165.745, 97.324 166.141 C 95.649 166.801, 95.643 166.865, 97.250 166.930 C 98.213 166.968, 99 167.642, 99 168.427 C 99 170.115, 103.657 174, 105.680 174 C 107.799 174, 112 169.377, 112 167.045 C 112 164.314, 108.545 160.991, 105.750 161.035 C 104.513 161.055, 102.375 161.693, 101 162.454 M 1 162.807 C 1 164.411, 8.885 171.003, 10.753 170.961 C 11.808 170.937, 11.292 170.396, 9.450 169.593 C 7.773 168.863, 5.186 166.821, 3.700 165.056 C 2.215 163.291, 1 162.279, 1 162.807 M 62.813 162.683 C 63.534 162.972, 64.397 162.936, 64.729 162.604 C 65.061 162.272, 64.471 162.036, 63.417 162.079 C 62.252 162.127, 62.015 162.364, 62.813 162.683 M 70.750 163.662 C 71.438 163.940, 72.563 163.940, 73.250 163.662 C 73.938 163.385, 73.375 163.158, 72 163.158 C 70.625 163.158, 70.063 163.385, 70.750 163.662 M 24.405 166.137 C 23.357 167.312, 21.150 168.869, 19.500 169.597 C 17.618 170.428, 17.157 170.936, 18.265 170.961 C 19.819 170.995, 28.416 164.096, 26.905 164.027 C 26.578 164.012, 25.453 164.961, 24.405 166.137 M 79.813 164.683 C 80.534 164.972, 81.397 164.936, 81.729 164.604 C 82.061 164.272, 81.471 164.036, 80.417 164.079 C 79.252 164.127, 79.015 164.364, 79.813 164.683 M 88.813 165.683 C 89.534 165.972, 90.397 165.936, 90.729 165.604 C 91.061 165.272, 90.471 165.036, 89.417 165.079 C 88.252 165.127, 88.015 165.364, 88.813 165.683" stroke="none" fill="black" fill-rule="evenodd"/>
</svg>